<mxGraphModel dx="1318" dy="859" grid="1" gridSize="10" guides="1" tooltips="1" connect="1" arrows="1" fold="1" page="1" pageScale="1" pageWidth="827" pageHeight="1169" math="0" shadow="0"><root><mxCell id="0"/><mxCell id="1" parent="0"/><mxCell id="o2mUwz7Grx4vO63S1X5e-2" value="GestioNotes" style="shape=umlFrame;whiteSpace=wrap;html=1;width=90;height=30;" parent="1" vertex="1"><mxGeometry x="120" y="40" width="520" height="320" as="geometry"/></mxCell><mxCell id="o2mUwz7Grx4vO63S1X5e-6" style="edgeStyle=orthogonalEdgeStyle;rounded=0;orthogonalLoop=1;jettySize=auto;html=1;" parent="1" source="o2mUwz7Grx4vO63S1X5e-3" target="o2mUwz7Grx4vO63S1X5e-5" edge="1"><mxGeometry relative="1" as="geometry"/></mxCell><mxCell id="o2mUwz7Grx4vO63S1X5e-3" value="Actor" style="shape=umlActor;verticalLabelPosition=bottom;verticalAlign=top;html=1;" parent="1" vertex="1"><mxGeometry x="40" y="160" width="30" height="60" as="geometry"/></mxCell><mxCell id="o2mUwz7Grx4vO63S1X5e-9" style="edgeStyle=orthogonalEdgeStyle;rounded=0;orthogonalLoop=1;jettySize=auto;html=1;" parent="1" source="o2mUwz7Grx4vO63S1X5e-5" target="o2mUwz7Grx4vO63S1X5e-8" edge="1"><mxGeometry relative="1" as="geometry"/></mxCell><mxCell id="o2mUwz7Grx4vO63S1X5e-10" style="edgeStyle=orthogonalEdgeStyle;rounded=0;orthogonalLoop=1;jettySize=auto;html=1;entryX=0;entryY=0.5;entryDx=0;entryDy=0;" parent="1" source="o2mUwz7Grx4vO63S1X5e-5" target="o2mUwz7Grx4vO63S1X5e-7" edge="1"><mxGeometry relative="1" as="geometry"/></mxCell><mxCell id="o2mUwz7Grx4vO63S1X5e-5" value="Autenticarse" style="ellipse;whiteSpace=wrap;html=1;" parent="1" vertex="1"><mxGeometry x="200" y="175" width="100" height="50" as="geometry"/></mxCell><mxCell id="o2mUwz7Grx4vO63S1X5e-13" style="edgeStyle=orthogonalEdgeStyle;rounded=0;orthogonalLoop=1;jettySize=auto;html=1;" parent="1" source="o2mUwz7Grx4vO63S1X5e-7" target="o2mUwz7Grx4vO63S1X5e-11" edge="1"><mxGeometry relative="1" as="geometry"/></mxCell><mxCell id="o2mUwz7Grx4vO63S1X5e-7" value="Permisos necesarios" style="ellipse;whiteSpace=wrap;html=1;" parent="1" vertex="1"><mxGeometry x="320" y="100" width="100" height="50" as="geometry"/></mxCell><mxCell id="o2mUwz7Grx4vO63S1X5e-14" style="edgeStyle=orthogonalEdgeStyle;rounded=0;orthogonalLoop=1;jettySize=auto;html=1;" parent="1" source="o2mUwz7Grx4vO63S1X5e-8" target="o2mUwz7Grx4vO63S1X5e-12" edge="1"><mxGeometry relative="1" as="geometry"/></mxCell><mxCell id="o2mUwz7Grx4vO63S1X5e-8" value="No permisos necesarios" style="ellipse;whiteSpace=wrap;html=1;" parent="1" vertex="1"><mxGeometry x="320" y="240" width="100" height="50" as="geometry"/></mxCell><mxCell id="o2mUwz7Grx4vO63S1X5e-11" value="Gestionar notas" style="ellipse;whiteSpace=wrap;html=1;" parent="1" vertex="1"><mxGeometry x="470" y="100" width="100" height="50" as="geometry"/></mxCell><mxCell id="o2mUwz7Grx4vO63S1X5e-12" value="Ver notas" style="ellipse;whiteSpace=wrap;html=1;" parent="1" vertex="1"><mxGeometry x="470" y="240" width="100" height="50" as="geometry"/></mxCell></root></mxGraphModel>